{"accessors" : [{"bufferView" : 0, "byteOffset" : 0, "componentType" : 5123, "count" : 2160, "type" : "SCALAR", "max" : [449], "min" : [0]}, {"bufferView" : 1, "byteOffset" : 0, "componentType" : 5126, "count" : 450, "type" : "VEC3", "max" : [2.281873941421509, 0.6114259958267212, 2.3638100624084473], "min" : [-2.281873941421509, -0.6114259958267212, -2.3638100624084473], "name" : "POSITION"}, {"bufferView" : 1, "byteOffset" : 12, "componentType" : 5126, "count" : 450, "type" : "VEC2", "max" : [0.9993910193443298, 1], "min" : [0, 0], "name" : "TEXCOORD_0"}, {"bufferView" : 1, "byteOffset" : 20, "componentType" : 5126, "count" : 450, "type" : "VEC3", "max" : [0.25880885124206543, 0.965933084487915, 0], "min" : [0.25880885124206543, 0.965933084487915, 0], "name" : "NORMAL"}, {"bufferView" : 0, "byteOffset" : 4320, "componentType" : 5123, "count" : 18048, "type" : "SCALAR", "max" : [3073], "min" : [0]}, {"bufferView" : 2, "byteOffset" : 0, "componentType" : 5126, "count" : 3074, "type" : "VEC3", "max" : [1, 1, 1], "min" : [-1, -1, -1], "name" : "POSITION"}, {"bufferView" : 2, "byteOffset" : 12, "componentType" : 5126, "count" : 3074, "type" : "VEC2", "max" : [1, 1], "min" : [0, 0.4824730157852173], "name" : "TEXCOORD_0"}, {"bufferView" : 2, "byteOffset" : 20, "componentType" : 5126, "count" : 3074, "type" : "VEC3", "max" : [1.0000044107437134, 1.0000044107437134, 1.0000044107437134], "min" : [-1.0000044107437134, -1.0000044107437134, -1.0000044107437134], "name" : "NORMAL"}, {"bufferView" : 0, "byteOffset" : 40416, "componentType" : 5123, "count" : 18048, "type" : "SCALAR", "max" : [3073], "min" : [0]}, {"bufferView" : 3, "byteOffset" : 0, "componentType" : 5126, "count" : 3074, "type" : "VEC3", "max" : [1.8250670433044434, 0.32561901211738586, -0.6111109852790833], "min" : [1.10794198513031, -0.39213401079177856, -1.3282359838485718], "name" : "POSITION"}, {"bufferView" : 3, "byteOffset" : 12, "componentType" : 5126, "count" : 3074, "type" : "VEC2", "max" : [1, 1], "min" : [0, 0.4824730157852173], "name" : "TEXCOORD_0"}, {"bufferView" : 3, "byteOffset" : 20, "componentType" : 5126, "count" : 3074, "type" : "VEC3", "max" : [0.999130368232727, 1.0000044107437134, 0.999130368232727], "min" : [-0.999130368232727, -1.0000044107437134, -0.999130368232727], "name" : "NORMAL"}], "asset" : {"generator" : "Aspose.3D 24.6.0", "version" : "2.0"}, "buffers" : [{"uri" : "data:application/octet-stream;base64,", "byteLength" : 287664}], "bufferViews" : [{"buffer" : 0, "byteOffset" : 0, "byteLength" : 76512, "target" : 34963}, {"buffer" : 0, "byteOffset" : 76516, "byteLength" : 14400, "byteStride" : 32, "target" : 34962}, {"buffer" : 0, "byteOffset" : 90920, "byteLength" : 98368, "byteStride" : 32, "target" : 34962}, {"buffer" : 0, "byteOffset" : 189292, "byteLength" : 98368, "byteStride" : 32, "target" : 34962}], "meshes" : [{"primitives" : [{"attributes" : {"POSITION" : 1, "TEXCOORD_0" : 2, "NORMAL" : 3}, "indices" : 0, "mode" : 4}], "name" : ""}, {"primitives" : [{"attributes" : {"POSITION" : 5, "TEXCOORD_0" : 6, "NORMAL" : 7}, "indices" : 4, "mode" : 4}], "name" : ""}, {"primitives" : [{"attributes" : {"POSITION" : 9, "TEXCOORD_0" : 10, "NORMAL" : 11}, "indices" : 8, "mode" : 4}], "name" : ""}], "nodes" : [{"mesh" : 0, "name" : "Rings_Circle.001"}, {"mesh" : 1, "name" : "Saturn_Sphere"}, {"mesh" : 2, "name" : "Moon_Sphere.004"}], "scene" : 0, "scenes" : [{"nodes" : [0, 1, 2]}]}